<svg xmlns="http://www.w3.org/2000/svg" width="1200" height="760" viewBox="0 0 1200 760" fill="none">
  <defs>
    <linearGradient id="farmbg" x1="0" y1="0" x2="1200" y2="760" gradientUnits="userSpaceOnUse">
      <stop stop-color="#F7E8CE"/>
      <stop offset="1" stop-color="#F1D4A1"/>
    </linearGradient>
  </defs>
  <rect width="1200" height="760" rx="36" fill="url(#farmbg)"/>
  <rect x="50" y="52" width="1100" height="656" rx="28" fill="#FFF7E6"/>
  <rect x="82" y="92" width="1036" height="62" rx="16" fill="#FAE8C8"/>
  <rect x="106" y="110" width="250" height="26" rx="8" fill="#B45225"/>
  <rect x="908" y="110" width="184" height="26" rx="8" fill="#D79D3A"/>
  <rect x="82" y="184" width="710" height="230" rx="26" fill="#FDF3DF"/>
  <rect x="114" y="224" width="150" height="22" rx="8" fill="#EED9B4"/>
  <rect x="114" y="258" width="540" height="30" rx="10" fill="#5C412B"/>
  <rect x="114" y="300" width="620" height="18" rx="8" fill="#8B6A49"/>
  <rect x="114" y="328" width="580" height="18" rx="8" fill="#8B6A49"/>
  <rect x="114" y="362" width="190" height="38" rx="12" fill="#7F9C3A"/>
  <rect x="808" y="184" width="310" height="230" rx="26" fill="#E7D0A4"/>
  <rect x="836" y="218" width="254" height="162" rx="18" fill="#9FC264"/>
  <rect x="82" y="438" width="514" height="238" rx="22" fill="#FFFFFF"/>
  <rect x="618" y="438" width="500" height="238" rx="22" fill="#FFFFFF"/>
  <circle cx="138" cy="502" r="15" fill="#B45225"/>
  <rect x="164" y="492" width="200" height="20" rx="8" fill="#5C412B"/>
  <rect x="106" y="532" width="460" height="14" rx="7" fill="#9D815E"/>
  <rect x="106" y="556" width="420" height="14" rx="7" fill="#9D815E"/>
  <circle cx="674" cy="502" r="15" fill="#7F9C3A"/>
  <rect x="700" y="492" width="200" height="20" rx="8" fill="#5C412B"/>
  <rect x="642" y="532" width="440" height="14" rx="7" fill="#9D815E"/>
  <rect x="642" y="556" width="400" height="14" rx="7" fill="#9D815E"/>
</svg>
