<svg xmlns="http://www.w3.org/2000/svg" width="1200" height="760" viewBox="0 0 1200 760" fill="none">
  <defs>
    <linearGradient id="bg" x1="0" y1="0" x2="1200" y2="760" gradientUnits="userSpaceOnUse">
      <stop stop-color="#1E2236"/>
      <stop offset="1" stop-color="#3F4FCB"/>
    </linearGradient>
    <linearGradient id="card" x1="0" y1="0" x2="1" y2="1">
      <stop stop-color="#F7F7FC"/>
      <stop offset="1" stop-color="#E8EBFF"/>
    </linearGradient>
  </defs>
  <rect width="1200" height="760" rx="36" fill="url(#bg)"/>
  <rect x="50" y="52" width="1100" height="656" rx="28" fill="#F4F6FF"/>
  <rect x="82" y="92" width="1036" height="62" rx="16" fill="#E7EBFF"/>
  <circle cx="132" cy="123" r="24" fill="#1C2237"/>
  <circle cx="132" cy="123" r="20" fill="#3141A0"/>
  <path d="M118 136V110L132 124L146 110V136" stroke="#F7F8FF" stroke-width="8" stroke-linecap="round" stroke-linejoin="round"/>
  <circle cx="118" cy="110" r="5" fill="#FF8C4B"/>
  <circle cx="132" cy="124" r="4.5" fill="#0F8B8D"/>
  <circle cx="146" cy="110" r="5" fill="#DCE3FF"/>
  <circle cx="118" cy="136" r="5" fill="#DCE3FF"/>
  <circle cx="146" cy="136" r="5" fill="#DCE3FF"/>
  <rect x="172" y="110" width="144" height="26" rx="8" fill="#4B56D2"/>
  <rect x="744" y="110" width="90" height="26" rx="8" fill="#DDE4FF"/>
  <rect x="848" y="110" width="90" height="26" rx="8" fill="#DDE4FF"/>
  <rect x="952" y="110" width="140" height="26" rx="8" fill="#FFBE98"/>
  <rect x="82" y="184" width="640" height="248" rx="26" fill="url(#card)"/>
  <rect x="110" y="222" width="170" height="24" rx="8" fill="#DCE2FF"/>
  <rect x="110" y="258" width="486" height="30" rx="10" fill="#2B315A"/>
  <rect x="110" y="300" width="560" height="20" rx="8" fill="#7E86A8"/>
  <rect x="110" y="328" width="520" height="20" rx="8" fill="#7E86A8"/>
  <rect x="110" y="366" width="180" height="38" rx="12" fill="#4B56D2"/>
  <rect x="306" y="366" width="180" height="38" rx="12" fill="#0F8B8D"/>
  <rect x="748" y="184" width="370" height="248" rx="26" fill="#E2E8FF"/>
  <rect x="786" y="226" width="294" height="170" rx="18" fill="#A4B2FF"/>
  <rect x="82" y="456" width="330" height="220" rx="22" fill="#FFFFFF"/>
  <rect x="434" y="456" width="330" height="220" rx="22" fill="#FFFFFF"/>
  <rect x="786" y="456" width="332" height="220" rx="22" fill="#FFFFFF"/>
  <circle cx="138" cy="516" r="16" fill="#4B56D2"/>
  <circle cx="490" cy="516" r="16" fill="#0F8B8D"/>
  <circle cx="842" cy="516" r="16" fill="#FF8C4B"/>
  <rect x="166" y="504" width="170" height="20" rx="8" fill="#2B315A"/>
  <rect x="518" y="504" width="170" height="20" rx="8" fill="#2B315A"/>
  <rect x="870" y="504" width="170" height="20" rx="8" fill="#2B315A"/>
  <rect x="106" y="542" width="270" height="14" rx="7" fill="#8A91B2"/>
  <rect x="458" y="542" width="270" height="14" rx="7" fill="#8A91B2"/>
  <rect x="810" y="542" width="270" height="14" rx="7" fill="#8A91B2"/>
</svg>
