<svg xmlns="http://www.w3.org/2000/svg" width="1200" height="760" viewBox="0 0 1200 760" fill="none">
  <defs>
    <linearGradient id="assocbg" x1="0" y1="0" x2="1200" y2="760" gradientUnits="userSpaceOnUse">
      <stop stop-color="#E9ECFF"/>
      <stop offset="1" stop-color="#C8D7F4"/>
    </linearGradient>
  </defs>
  <rect width="1200" height="760" rx="36" fill="url(#assocbg)"/>
  <rect x="50" y="52" width="1100" height="656" rx="28" fill="#F9FAFF"/>
  <rect x="82" y="92" width="1036" height="62" rx="16" fill="#E6EBFF"/>
  <rect x="106" y="110" width="280" height="26" rx="8" fill="#3F5CCF"/>
  <rect x="82" y="184" width="1036" height="210" rx="24" fill="#F0F4FF"/>
  <rect x="116" y="216" width="180" height="22" rx="8" fill="#D0DBFF"/>
  <rect x="116" y="252" width="500" height="30" rx="10" fill="#1F2A4A"/>
  <rect x="116" y="294" width="560" height="18" rx="8" fill="#6A7396"/>
  <rect x="116" y="322" width="500" height="18" rx="8" fill="#6A7396"/>
  <rect x="718" y="218" width="370" height="144" rx="18" fill="#DCE4FF"/>
  <rect x="746" y="242" width="314" height="20" rx="8" fill="#3F5CCF"/>
  <rect x="746" y="274" width="220" height="14" rx="7" fill="#7185CA"/>
  <rect x="746" y="298" width="250" height="14" rx="7" fill="#7185CA"/>
  <rect x="746" y="322" width="200" height="14" rx="7" fill="#7185CA"/>
  <rect x="82" y="418" width="333" height="258" rx="22" fill="#FFFFFF"/>
  <rect x="434" y="418" width="333" height="258" rx="22" fill="#FFFFFF"/>
  <rect x="786" y="418" width="332" height="258" rx="22" fill="#FFFFFF"/>
  <circle cx="138" cy="482" r="15" fill="#3F5CCF"/>
  <circle cx="490" cy="482" r="15" fill="#2F9A88"/>
  <circle cx="842" cy="482" r="15" fill="#F39F3F"/>
  <rect x="164" y="472" width="180" height="20" rx="8" fill="#1F2A4A"/>
  <rect x="516" y="472" width="180" height="20" rx="8" fill="#1F2A4A"/>
  <rect x="868" y="472" width="180" height="20" rx="8" fill="#1F2A4A"/>
  <rect x="106" y="514" width="270" height="14" rx="7" fill="#7784B4"/>
  <rect x="458" y="514" width="270" height="14" rx="7" fill="#7784B4"/>
  <rect x="810" y="514" width="270" height="14" rx="7" fill="#7784B4"/>
  <rect x="106" y="538" width="240" height="14" rx="7" fill="#7784B4"/>
  <rect x="458" y="538" width="240" height="14" rx="7" fill="#7784B4"/>
  <rect x="810" y="538" width="240" height="14" rx="7" fill="#7784B4"/>
</svg>
