<svg xmlns="http://www.w3.org/2000/svg" viewBox="0 0 720 640" fill="none">
  <defs>
    <linearGradient id="modulaHeroBg" x1="84" y1="88" x2="636" y2="540" gradientUnits="userSpaceOnUse">
      <stop stop-color="#1E2236"/>
      <stop offset="1" stop-color="#4B56D2"/>
    </linearGradient>
    <linearGradient id="modulaHeroCard" x1="128" y1="136" x2="592" y2="468" gradientUnits="userSpaceOnUse">
      <stop stop-color="#F7F7FC"/>
      <stop offset="1" stop-color="#E8ECFF"/>
    </linearGradient>
  </defs>
  <rect width="720" height="640" rx="48" fill="#EEF2FF"/>
  <rect x="84" y="88" width="552" height="452" rx="36" fill="url(#modulaHeroBg)"/>
  <rect x="126" y="128" width="468" height="64" rx="20" fill="#F4F6FF" fill-opacity="0.14"/>
  <circle cx="176" cy="160" r="28" fill="#151B2D"/>
  <circle cx="176" cy="160" r="24" fill="#3342A4"/>
  <path d="M160 176V144L176 161L192 144V176" stroke="#F7F8FF" stroke-width="9" stroke-linecap="round" stroke-linejoin="round"/>
  <circle cx="160" cy="144" r="5.5" fill="#FF8C4B"/>
  <circle cx="176" cy="161" r="5" fill="#0F8B8D"/>
  <circle cx="192" cy="144" r="5.5" fill="#DCE3FF"/>
  <circle cx="160" cy="176" r="5.5" fill="#DCE3FF"/>
  <circle cx="192" cy="176" r="5.5" fill="#DCE3FF"/>
  <rect x="224" y="148" width="170" height="24" rx="10" fill="#DCE2FF"/>
  <rect x="128" y="224" width="250" height="244" rx="28" fill="url(#modulaHeroCard)"/>
  <rect x="398" y="224" width="194" height="114" rx="26" fill="#DDE4FF"/>
  <rect x="398" y="354" width="194" height="114" rx="26" fill="#0F8B8D"/>
  <rect x="164" y="264" width="110" height="14" rx="7" fill="#CAD4FF"/>
  <rect x="164" y="294" width="174" height="24" rx="10" fill="#283152"/>
  <rect x="164" y="334" width="150" height="16" rx="8" fill="#7B86B6"/>
  <rect x="164" y="358" width="130" height="16" rx="8" fill="#7B86B6"/>
  <rect x="164" y="404" width="104" height="36" rx="14" fill="#4B56D2"/>
  <rect x="430" y="258" width="130" height="18" rx="9" fill="#7C8BE8"/>
  <rect x="430" y="292" width="96" height="16" rx="8" fill="#B2BEFF"/>
  <rect x="430" y="388" width="118" height="18" rx="9" fill="#D6FFFB"/>
  <rect x="430" y="420" width="90" height="16" rx="8" fill="#9AE7DF"/>
</svg>
